<?xml version="1.0" encoding="UTF-8"?>
<svg width="134px" height="29px" viewBox="0 0 134 29" version="1.1" xmlns="http://www.w3.org/2000/svg" xmlns:xlink="http://www.w3.org/1999/xlink">
    <!-- Generator: Sketch 52.6 (67491) - http://www.bohemiancoding.com/sketch -->
    <title>admin_logo_ePData</title>
    <desc>Created with Sketch.</desc>
    <defs>
        <path d="M4.792,8 L4.144,8 L3.688,6.712 L1.2,6.712 L0.744,8 L0.096,8 L2.192,2.304 L2.704,2.304 L4.792,8 Z M3.512,6.184 L2.456,3.176 L1.384,6.184 L3.512,6.184 Z M8.528,8 L7.96,8 L7.96,7.528 C7.64,7.944 7.272,8.048 6.84,8.048 C6.44,8.048 6.088,7.912 5.88,7.704 C5.48,7.304 5.4,6.648 5.4,6.032 C5.4,5.416 5.48,4.76 5.88,4.36 C6.088,4.152 6.44,4.016 6.84,4.016 C7.272,4.016 7.632,4.112 7.952,4.52 L7.952,2.304 L8.528,2.304 L8.528,8 Z M7.952,6.032 C7.952,5.264 7.824,4.528 6.968,4.528 C6.112,4.528 5.976,5.264 5.976,6.032 C5.976,6.8 6.112,7.536 6.968,7.536 C7.824,7.536 7.952,6.8 7.952,6.032 Z M15.6,8 L15.024,8 L15.024,5.576 C15.024,4.88 14.648,4.528 14.056,4.528 C13.48,4.528 13.072,4.888 13.072,5.512 L13.072,8 L12.496,8 L12.496,5.576 C12.496,4.88 12.12,4.528 11.528,4.528 C10.936,4.528 10.544,4.888 10.544,5.576 L10.544,8 L9.968,8 L9.968,4.064 L10.544,4.064 L10.544,4.496 C10.824,4.176 11.216,4.016 11.656,4.016 C12.2,4.016 12.624,4.24 12.864,4.672 C13.168,4.24 13.608,4.016 14.16,4.016 C14.584,4.016 14.936,4.152 15.176,4.384 C15.456,4.656 15.6,5.024 15.6,5.48 L15.6,8 Z M17.616,2.944 L16.968,2.944 L16.968,2.296 L17.616,2.296 L17.616,2.944 Z M17.576,8 L17,8 L17,4.064 L17.576,4.064 L17.576,8 Z M22.12,8 L21.544,8 L21.544,5.576 C21.544,4.88 21.168,4.528 20.576,4.528 C19.984,4.528 19.6,4.888 19.6,5.576 L19.6,8 L19.024,8 L19.024,4.064 L19.6,4.064 L19.6,4.496 C19.88,4.176 20.264,4.016 20.704,4.016 C21.128,4.016 21.472,4.144 21.712,4.384 C21.992,4.656 22.12,5.024 22.12,5.48 L22.12,8 Z M30.496,8 L29.888,8 L29.888,3.672 L28.328,7.104 L27.808,7.104 L26.224,3.672 L26.224,8 L25.616,8 L25.616,2.304 L26.224,2.304 L28.08,6.344 L29.888,2.304 L30.496,2.304 L30.496,8 Z M34.848,8 L34.272,8 L34.272,7.624 C33.952,7.944 33.664,8.048 33.136,8.048 C32.592,8.048 32.272,7.944 32.024,7.688 C31.832,7.496 31.728,7.2 31.728,6.888 C31.728,6.2 32.208,5.752 33.088,5.752 L34.272,5.752 L34.272,5.376 C34.272,4.8 33.984,4.512 33.264,4.512 C32.76,4.512 32.504,4.632 32.272,4.96 L31.88,4.6 C32.232,4.144 32.632,4.016 33.272,4.016 C34.328,4.016 34.848,4.472 34.848,5.328 L34.848,8 Z M34.272,6.608 L34.272,6.184 L33.168,6.184 C32.576,6.184 32.288,6.424 32.288,6.88 C32.288,7.336 32.568,7.552 33.192,7.552 C33.528,7.552 33.824,7.528 34.072,7.288 C34.208,7.16 34.272,6.936 34.272,6.608 Z M39.344,8 L38.768,8 L38.768,5.576 C38.768,4.88 38.392,4.528 37.8,4.528 C37.208,4.528 36.824,4.888 36.824,5.576 L36.824,8 L36.248,8 L36.248,4.064 L36.824,4.064 L36.824,4.496 C37.104,4.176 37.488,4.016 37.928,4.016 C38.352,4.016 38.696,4.144 38.936,4.384 C39.216,4.656 39.344,5.024 39.344,5.48 L39.344,8 Z M43.552,8 L42.976,8 L42.976,7.624 C42.656,7.944 42.368,8.048 41.84,8.048 C41.296,8.048 40.976,7.944 40.728,7.688 C40.536,7.496 40.432,7.2 40.432,6.888 C40.432,6.2 40.912,5.752 41.792,5.752 L42.976,5.752 L42.976,5.376 C42.976,4.8 42.688,4.512 41.968,4.512 C41.464,4.512 41.208,4.632 40.976,4.96 L40.584,4.6 C40.936,4.144 41.336,4.016 41.976,4.016 C43.032,4.016 43.552,4.472 43.552,5.328 L43.552,8 Z M42.976,6.608 L42.976,6.184 L41.872,6.184 C41.28,6.184 40.992,6.424 40.992,6.88 C40.992,7.336 41.272,7.552 41.896,7.552 C42.232,7.552 42.528,7.528 42.776,7.288 C42.912,7.16 42.976,6.936 42.976,6.608 Z M47.856,8.12 C47.856,9.096 47.248,9.808 46.216,9.808 C45.624,9.808 45.296,9.656 44.88,9.28 L45.256,8.912 C45.544,9.168 45.744,9.304 46.2,9.304 C46.96,9.304 47.28,8.768 47.28,8.096 L47.28,7.48 C46.96,7.888 46.6,7.992 46.176,7.992 C45.776,7.992 45.432,7.848 45.224,7.64 C44.832,7.248 44.744,6.64 44.744,6 C44.744,5.36 44.832,4.752 45.224,4.36 C45.432,4.152 45.784,4.016 46.184,4.016 C46.616,4.016 46.968,4.112 47.288,4.528 L47.288,4.064 L47.856,4.064 L47.856,8.12 Z M47.28,6 C47.28,5.264 47.16,4.528 46.304,4.528 C45.448,4.528 45.32,5.264 45.32,6 C45.32,6.736 45.448,7.472 46.304,7.472 C47.16,7.472 47.28,6.736 47.28,6 Z M52.312,6.184 L49.656,6.184 C49.656,7.048 50.064,7.544 50.816,7.544 C51.272,7.544 51.536,7.408 51.848,7.096 L52.24,7.44 C51.84,7.84 51.472,8.048 50.8,8.048 C49.76,8.048 49.08,7.424 49.08,6.032 C49.08,4.76 49.696,4.016 50.696,4.016 C51.712,4.016 52.312,4.752 52.312,5.92 L52.312,6.184 Z M51.736,5.752 C51.72,5.432 51.704,5.312 51.616,5.096 C51.464,4.736 51.112,4.504 50.696,4.504 C50.28,4.504 49.928,4.736 49.776,5.096 C49.688,5.312 49.672,5.432 49.656,5.752 L51.736,5.752 Z M59.168,8 L58.592,8 L58.592,5.576 C58.592,4.88 58.216,4.528 57.624,4.528 C57.048,4.528 56.64,4.888 56.64,5.512 L56.64,8 L56.064,8 L56.064,5.576 C56.064,4.88 55.688,4.528 55.096,4.528 C54.504,4.528 54.112,4.888 54.112,5.576 L54.112,8 L53.536,8 L53.536,4.064 L54.112,4.064 L54.112,4.496 C54.392,4.176 54.784,4.016 55.224,4.016 C55.768,4.016 56.192,4.24 56.432,4.672 C56.736,4.24 57.176,4.016 57.728,4.016 C58.152,4.016 58.504,4.152 58.744,4.384 C59.024,4.656 59.168,5.024 59.168,5.48 L59.168,8 Z M63.584,6.184 L60.928,6.184 C60.928,7.048 61.336,7.544 62.088,7.544 C62.544,7.544 62.808,7.408 63.12,7.096 L63.512,7.44 C63.112,7.84 62.744,8.048 62.072,8.048 C61.032,8.048 60.352,7.424 60.352,6.032 C60.352,4.76 60.968,4.016 61.968,4.016 C62.984,4.016 63.584,4.752 63.584,5.92 L63.584,6.184 Z M63.008,5.752 C62.992,5.432 62.976,5.312 62.888,5.096 C62.736,4.736 62.384,4.504 61.968,4.504 C61.552,4.504 61.2,4.736 61.048,5.096 C60.96,5.312 60.944,5.432 60.928,5.752 L63.008,5.752 Z M67.904,8 L67.328,8 L67.328,5.576 C67.328,4.88 66.952,4.528 66.36,4.528 C65.768,4.528 65.384,4.888 65.384,5.576 L65.384,8 L64.808,8 L64.808,4.064 L65.384,4.064 L65.384,4.496 C65.664,4.176 66.048,4.016 66.488,4.016 C66.912,4.016 67.256,4.144 67.496,4.384 C67.776,4.656 67.904,5.024 67.904,5.48 L67.904,8 Z M70.816,8 L70.408,8 C69.736,8 69.4,7.528 69.4,6.944 L69.4,4.528 L68.904,4.528 L68.904,4.088 L69.4,4.088 L69.4,2.856 L69.976,2.856 L69.976,4.088 L70.816,4.088 L70.816,4.528 L69.976,4.528 L69.976,6.928 C69.976,7.288 70.144,7.504 70.512,7.504 L70.816,7.504 L70.816,8 Z M77.376,2.848 L75.728,2.848 L75.728,8 L75.12,8 L75.12,2.848 L73.472,2.848 L73.472,2.304 L77.376,2.304 L77.376,2.848 Z M80.736,6.032 C80.736,6.64 80.656,7.192 80.256,7.6 C79.984,7.872 79.608,8.048 79.128,8.048 C78.648,8.048 78.272,7.872 78,7.6 C77.6,7.192 77.52,6.64 77.52,6.032 C77.52,5.424 77.6,4.872 78,4.464 C78.272,4.192 78.648,4.016 79.128,4.016 C79.608,4.016 79.984,4.192 80.256,4.464 C80.656,4.872 80.736,5.424 80.736,6.032 Z M80.16,6.032 C80.16,5.592 80.136,5.104 79.848,4.816 C79.664,4.632 79.408,4.528 79.128,4.528 C78.848,4.528 78.6,4.632 78.416,4.816 C78.128,5.104 78.096,5.592 78.096,6.032 C78.096,6.472 78.128,6.96 78.416,7.248 C78.6,7.432 78.848,7.536 79.128,7.536 C79.408,7.536 79.664,7.432 79.848,7.248 C80.136,6.96 80.16,6.472 80.16,6.032 Z M84.976,6.032 C84.976,6.64 84.896,7.192 84.496,7.6 C84.224,7.872 83.848,8.048 83.368,8.048 C82.888,8.048 82.512,7.872 82.24,7.6 C81.84,7.192 81.76,6.64 81.76,6.032 C81.76,5.424 81.84,4.872 82.24,4.464 C82.512,4.192 82.888,4.016 83.368,4.016 C83.848,4.016 84.224,4.192 84.496,4.464 C84.896,4.872 84.976,5.424 84.976,6.032 Z M84.4,6.032 C84.4,5.592 84.376,5.104 84.088,4.816 C83.904,4.632 83.648,4.528 83.368,4.528 C83.088,4.528 82.84,4.632 82.656,4.816 C82.368,5.104 82.336,5.592 82.336,6.032 C82.336,6.472 82.368,6.96 82.656,7.248 C82.84,7.432 83.088,7.536 83.368,7.536 C83.648,7.536 83.904,7.432 84.088,7.248 C84.376,6.96 84.4,6.472 84.4,6.032 Z M87.608,8 L87.192,8 C86.504,8 86.192,7.552 86.192,6.952 L86.192,2.304 L86.768,2.304 L86.768,6.928 C86.768,7.312 86.896,7.504 87.296,7.504 L87.608,7.504 L87.608,8 Z" id="path-1"></path>
        <linearGradient x1="6.03607501%" y1="4.77401747%" x2="93.959882%" y2="94.5105536%" id="linearGradient-2">
            <stop stop-color="#1D83F2" offset="0%"></stop>
            <stop stop-color="#B2D6FD" offset="100%"></stop>
        </linearGradient>
    </defs>
    <g id="Page-1" stroke="none" stroke-width="1" fill="none" fill-rule="evenodd">
        <g id="admin_logo_ePData" transform="translate(-1.000000, -10.000000)">
            <rect id="Rectangle-2-Copy" opacity="0.05" x="2" y="9" width="130" height="30"></rect>
            <g id="Group-5-Copy">
                <g id="Group-4" transform="translate(46.000000, 4.000000)">
                    <g id="ePData" fill="#000000" font-family="DIN-Regular, DIN" font-size="22" font-weight="normal">
                        <text>
                            <tspan x="0" y="22">ePData</tspan>
                        </text>
                    </g>
                    <g id="Admin-Management-Too" transform="translate(1.000000, 25.000000)">
                        <g id="Admin-Management-Tool">
                            <use fill="#000000" xlink:href="#path-1"></use>
                            <use fill="#595959" xlink:href="#path-1"></use>
                        </g>
                    </g>
                </g>
                <g id="Group-17">
                    <rect id="Rectangle-2" x="1" y="0" width="44" height="44"></rect>
                    <path d="M34.0431034,37.1724138 L22.9618227,37.1724138 C21.2335523,37.1724138 19.8325123,35.7713738 19.8325123,34.0431034 L19.8325123,24.1674877 L9.95689655,24.1674877 C8.22862617,24.1674877 6.82758621,22.7664477 6.82758621,21.0381773 L6.82758621,9.95689655 C6.82758621,8.22862617 8.22862617,6.82758621 9.95689655,6.82758621 L21.0381773,6.82758621 C22.7664477,6.82758621 24.1674877,8.22862617 24.1674877,9.95689655 L24.1674877,16.1003695 C24.1674877,16.9645046 23.4669677,17.6650246 22.6028325,17.6650246 L12.2463054,17.6650246 C11.6477702,17.6650246 11.1625616,18.1502333 11.1625616,18.7487685 C11.1625616,19.3473037 11.6477702,19.8325123 12.2463054,19.8325123 L34.0431034,19.8325123 C35.7713738,19.8325123 37.1724138,21.2335523 37.1724138,22.9618227 L37.1724138,34.0431034 C37.1724138,35.7713738 35.7713738,37.1724138 34.0431034,37.1724138 Z M12.2463054,13.3300493 L18.7487685,13.3300493 C19.3473037,13.3300493 19.8325123,12.8448406 19.8325123,12.2463054 C19.8325123,11.6477702 19.3473037,11.1625616 18.7487685,11.1625616 L12.2463054,11.1625616 C11.6477702,11.1625616 11.1625616,11.6477702 11.1625616,12.2463054 C11.1625616,12.8448406 11.6477702,13.3300493 12.2463054,13.3300493 Z M25.7321429,32.8374384 L31.2727833,32.8374384 C32.1369184,32.8374384 32.8374384,32.1369184 32.8374384,31.2727833 L32.8374384,25.7321429 C32.8374384,24.8680077 32.1369184,24.1674877 31.2727833,24.1674877 L25.7321429,24.1674877 C24.8680077,24.1674877 24.1674877,24.8680077 24.1674877,25.7321429 L24.1674877,31.2727833 C24.1674877,32.1369184 24.8680077,32.8374384 25.7321429,32.8374384 Z M18.4778325,24.1674877 L19.8325123,24.1674877 L19.8325123,25.5221675 C19.8325123,24.7739985 19.2260015,24.1674877 18.4778325,24.1674877 Z" id="Combined-Shape" fill="url(#linearGradient-2)" fill-rule="nonzero" transform="translate(22.000000, 22.000000) rotate(-45.000000) translate(-22.000000, -22.000000) "></path>
                </g>
            </g>
        </g>
    </g>
</svg>