<?xml version="1.0" encoding="UTF-8"?>
<svg width="130px" height="30px" viewBox="0 0 130 30" version="1.1" xmlns="http://www.w3.org/2000/svg" xmlns:xlink="http://www.w3.org/1999/xlink">
    <!-- Generator: Sketch 49.3 (51167) - http://www.bohemiancoding.com/sketch -->
    <title>Group 5</title>
    <desc>Created with Sketch.</desc>
    <defs></defs>
    <g id="Page-1" stroke="none" stroke-width="1" fill="none" fill-rule="evenodd">
        <g id="标准表格（表格查询）-" transform="translate(-30.000000, -26.000000)">
            <g id="Group-18-Copy" transform="translate(3.000000, 0.000000)">
                <g id="2" transform="translate(24.000000, 17.000000)">
                    <g id="Group-5">
                        <path d="M48.274,20.006 L40.97,20.006 C40.97,22.382 42.092,23.746 44.16,23.746 C45.414,23.746 46.14,23.372 46.998,22.514 L48.076,23.46 C46.976,24.56 45.964,25.132 44.116,25.132 C41.256,25.132 39.386,23.416 39.386,19.588 C39.386,16.09 41.08,14.044 43.83,14.044 C46.624,14.044 48.274,16.068 48.274,19.28 L48.274,20.006 Z M46.69,18.818 C46.646,17.938 46.602,17.608 46.36,17.014 C45.942,16.024 44.974,15.386 43.83,15.386 C42.686,15.386 41.718,16.024 41.3,17.014 C41.058,17.608 41.014,17.938 40.97,18.818 L46.69,18.818 Z M61.3860001,13.934 C61.3860001,16.75 59.4060001,18.554 56.5460001,18.554 L52.3880001,18.554 L52.3880001,25 L50.7160001,25 L50.7160001,9.336 L56.5460001,9.336 C59.4060001,9.336 61.3860001,11.118 61.3860001,13.934 Z M59.7140001,13.934 C59.7140001,11.866 58.3500001,10.832 56.3920001,10.832 L52.3880001,10.832 L52.3880001,17.058 L56.3920001,17.058 C58.3500001,17.058 59.7140001,16.002 59.7140001,13.934 Z M73.6840002,20.468 C73.1780002,23.416 71.0440002,25.132 68.2500002,25.132 C66.7100002,25.132 65.3020002,24.56 64.2460002,23.504 C62.7720002,22.03 62.7720002,20.49 62.7720002,17.168 C62.7720002,13.846 62.7720002,12.306 64.2460002,10.832 C65.3020002,9.776 66.7100002,9.204 68.2500002,9.204 C71.0660002,9.204 73.1560002,10.92 73.6840002,13.868 L71.9680002,13.868 C71.5500002,11.954 70.2080002,10.7 68.2500002,10.7 C67.2160002,10.7 66.2260002,11.096 65.5440002,11.8 C64.5540002,12.812 64.4440002,13.89 64.4440002,17.168 C64.4440002,20.446 64.5540002,21.524 65.5440002,22.536 C66.2260002,23.24 67.2160002,23.636 68.2500002,23.636 C70.2080002,23.636 71.5940002,22.382 72.0120002,20.468 L73.6840002,20.468 Z M84.1560002,19.588 C84.1560002,21.26 83.9360002,22.778 82.8360002,23.9 C82.0880002,24.648 81.0540002,25.132 79.7340002,25.132 C78.4140002,25.132 77.3800002,24.648 76.6320002,23.9 C75.5320002,22.778 75.3120002,21.26 75.3120002,19.588 C75.3120002,17.916 75.5320002,16.398 76.6320002,15.276 C77.3800002,14.528 78.4140002,14.044 79.7340002,14.044 C81.0540002,14.044 82.0880002,14.528 82.8360002,15.276 C83.9360002,16.398 84.1560002,17.916 84.1560002,19.588 Z M82.5720002,19.588 C82.5720002,18.378 82.5060002,17.036 81.7140002,16.244 C81.2080002,15.738 80.5040002,15.452 79.7340002,15.452 C78.9640002,15.452 78.2820002,15.738 77.7760002,16.244 C76.9840002,17.036 76.8960002,18.378 76.8960002,19.588 C76.8960002,20.798 76.9840002,22.14 77.7760002,22.932 C78.2820002,23.438 78.9640002,23.724 79.7340002,23.724 C80.5040002,23.724 81.2080002,23.438 81.7140002,22.932 C82.5060002,22.14 82.5720002,20.798 82.5720002,19.588 Z M94.8480003,25 L93.2640003,25 L93.2640003,18.334 C93.2640003,16.42 92.2300003,15.452 90.6020003,15.452 C88.9740003,15.452 87.9180003,16.442 87.9180003,18.334 L87.9180003,25 L86.3340003,25 L86.3340003,14.176 L87.9180003,14.176 L87.9180003,15.364 C88.6880003,14.484 89.7440003,14.044 90.9540003,14.044 C92.1200003,14.044 93.0660003,14.396 93.7260003,15.056 C94.4960003,15.804 94.8480003,16.816 94.8480003,18.07 L94.8480003,25 Z M106.002,25 L104.418,25 L104.418,18.334 C104.418,16.42 103.384,15.452 101.756,15.452 C100.128,15.452 99.0720004,16.442 99.0720004,18.334 L99.0720004,25 L97.4880004,25 L97.4880004,14.176 L99.0720004,14.176 L99.0720004,15.364 C99.8420004,14.484 100.898,14.044 102.108,14.044 C103.274,14.044 104.22,14.396 104.88,15.056 C105.65,15.804 106.002,16.816 106.002,18.07 L106.002,25 Z M116.936,20.006 L109.632,20.006 C109.632,22.382 110.754,23.746 112.822,23.746 C114.076,23.746 114.802,23.372 115.66,22.514 L116.738,23.46 C115.638,24.56 114.626,25.132 112.778,25.132 C109.918,25.132 108.048,23.416 108.048,19.588 C108.048,16.09 109.742,14.044 112.492,14.044 C115.286,14.044 116.936,16.068 116.936,19.28 L116.936,20.006 Z M115.352,18.818 C115.308,17.938 115.264,17.608 115.022,17.014 C114.604,16.024 113.636,15.386 112.492,15.386 C111.348,15.386 110.38,16.024 109.962,17.014 C109.72,17.608 109.676,17.938 109.632,18.818 L115.352,18.818 Z M126.858001,23.526 C125.736001,24.736 124.790001,25.132 123.294001,25.132 C120.566001,25.132 118.498001,23.284 118.498001,19.588 C118.498001,15.892 120.566001,14.044 123.294001,14.044 C124.790001,14.044 125.736001,14.44 126.858001,15.65 L125.780001,16.662 C124.966001,15.76 124.328001,15.452 123.294001,15.452 C122.238001,15.452 121.358001,15.87 120.786001,16.684 C120.280001,17.388 120.082001,18.224 120.082001,19.588 C120.082001,20.952 120.280001,21.788 120.786001,22.492 C121.358001,23.306 122.238001,23.724 123.294001,23.724 C124.328001,23.724 124.966001,23.394 125.780001,22.492 L126.858001,23.526 Z M132.820001,25 L131.698001,25 C129.850001,25 128.926001,23.702 128.926001,22.096 L128.926001,15.452 L127.562001,15.452 L127.562001,14.242 L128.926001,14.242 L128.926001,10.854 L130.510001,10.854 L130.510001,14.242 L132.820001,14.242 L132.820001,15.452 L130.510001,15.452 L130.510001,22.052 C130.510001,23.042 130.972001,23.636 131.984001,23.636 L132.820001,23.636 L132.820001,25 Z" id="ePConnect" fill="#000000"></path>
                        <path d="M41.248,31.288 L42.008,31.288 L44.256,37 L43.544,37 L42.936,35.4 L40.312,35.4 L39.704,37 L39,37 L41.248,31.288 Z M40.52,34.848 L42.728,34.848 L41.648,31.992 L41.616,31.992 L40.52,34.848 Z M47.868,31.176 L48.508,31.176 L48.508,37 L47.908,37 L47.908,36.32 C47.62,36.848 47.156,37.112 46.532,37.112 C45.924,37.112 45.452,36.888 45.116,36.456 C44.804,36.056 44.652,35.544 44.652,34.92 C44.652,34.312 44.804,33.816 45.116,33.416 C45.452,32.968 45.908,32.752 46.5,32.752 C47.092,32.752 47.548,33.04 47.868,33.624 L47.868,31.176 Z M46.636,33.28 C46.18,33.28 45.836,33.44 45.612,33.76 C45.404,34.04 45.308,34.424 45.308,34.92 C45.308,35.416 45.404,35.808 45.604,36.096 C45.828,36.416 46.164,36.584 46.612,36.584 C47.028,36.584 47.348,36.424 47.58,36.104 C47.78,35.816 47.884,35.44 47.884,34.976 L47.884,34.896 C47.884,34.416 47.764,34.024 47.54,33.728 C47.308,33.424 47.004,33.28 46.636,33.28 Z M51.368,32.752 C52,32.752 52.432,33.008 52.664,33.536 C52.824,33.264 53.016,33.064 53.24,32.944 C53.44,32.816 53.68,32.752 53.968,32.752 C54.4,32.752 54.744,32.888 55.016,33.16 C55.272,33.44 55.408,33.816 55.408,34.288 L55.408,37 L54.768,37 L54.768,34.392 C54.768,34.024 54.688,33.752 54.536,33.576 C54.376,33.384 54.12,33.296 53.768,33.296 C53.496,33.296 53.264,33.392 53.088,33.6 C52.896,33.808 52.808,34.072 52.808,34.408 L52.808,37 L52.168,37 L52.168,34.392 C52.168,33.656 51.848,33.296 51.216,33.296 C50.92,33.296 50.68,33.408 50.488,33.648 C50.296,33.872 50.2,34.152 50.2,34.48 L50.2,37 L49.56,37 L49.56,32.864 L50.2,32.864 L50.2,33.416 C50.512,32.968 50.904,32.752 51.368,32.752 Z M56.988,31.304 C57.124,31.304 57.236,31.344 57.332,31.44 C57.428,31.52 57.476,31.632 57.476,31.776 C57.476,31.912 57.428,32.024 57.332,32.12 C57.236,32.208 57.124,32.256 56.988,32.256 C56.852,32.256 56.74,32.208 56.644,32.12 C56.548,32.024 56.508,31.912 56.508,31.776 C56.508,31.632 56.548,31.52 56.644,31.44 C56.74,31.344 56.852,31.304 56.988,31.304 Z M56.668,32.864 L57.308,32.864 L57.308,37 L56.668,37 L56.668,32.864 Z M60.504,32.752 C61.528,32.752 62.048,33.32 62.048,34.456 L62.048,37 L61.408,37 L61.408,34.504 C61.408,33.696 61.04,33.296 60.32,33.296 C60.032,33.296 59.784,33.4 59.576,33.608 C59.352,33.832 59.232,34.128 59.208,34.504 L59.208,37 L58.568,37 L58.568,32.864 L59.208,32.864 L59.208,33.472 C59.352,33.24 59.536,33.064 59.76,32.944 C59.984,32.816 60.232,32.752 60.504,32.752 Z M65.904,31.288 L66.72,31.288 L68.848,36.16 L68.872,36.16 L70.992,31.288 L71.808,31.288 L71.808,37 L71.152,37 L71.152,32.456 L71.128,32.456 L69.152,37 L68.56,37 L66.584,32.456 L66.56,32.456 L66.56,37 L65.904,37 L65.904,31.288 Z M74.74,32.752 C75.332,32.752 75.764,32.904 76.052,33.216 C76.292,33.488 76.42,33.864 76.42,34.344 L76.42,37 L75.82,37 L75.82,36.304 C75.66,36.528 75.444,36.712 75.188,36.856 C74.884,37.024 74.54,37.112 74.156,37.112 C73.74,37.112 73.412,37.008 73.164,36.8 C72.908,36.584 72.78,36.304 72.78,35.968 C72.78,35.496 72.964,35.144 73.348,34.904 C73.684,34.68 74.164,34.56 74.788,34.552 L75.78,34.536 L75.78,34.32 C75.78,33.624 75.42,33.28 74.7,33.28 C74.396,33.28 74.148,33.336 73.956,33.464 C73.74,33.592 73.604,33.792 73.54,34.056 L72.908,34.008 C72.996,33.576 73.212,33.248 73.548,33.04 C73.852,32.848 74.244,32.752 74.74,32.752 Z M75.78,35.016 L74.828,35.032 C73.9,35.048 73.436,35.352 73.436,35.952 C73.436,36.144 73.508,36.296 73.668,36.424 C73.828,36.544 74.036,36.608 74.292,36.608 C74.684,36.608 75.028,36.48 75.332,36.224 C75.628,35.976 75.78,35.688 75.78,35.368 L75.78,35.016 Z M79.408,32.752 C80.432,32.752 80.952,33.32 80.952,34.456 L80.952,37 L80.312,37 L80.312,34.504 C80.312,33.696 79.944,33.296 79.224,33.296 C78.936,33.296 78.688,33.4 78.48,33.608 C78.256,33.832 78.136,34.128 78.112,34.504 L78.112,37 L77.472,37 L77.472,32.864 L78.112,32.864 L78.112,33.472 C78.256,33.24 78.44,33.064 78.664,32.944 C78.888,32.816 79.136,32.752 79.408,32.752 Z M83.804,32.752 C84.396,32.752 84.828,32.904 85.116,33.216 C85.356,33.488 85.484,33.864 85.484,34.344 L85.484,37 L84.884,37 L84.884,36.304 C84.724,36.528 84.508,36.712 84.252,36.856 C83.948,37.024 83.604,37.112 83.22,37.112 C82.804,37.112 82.476,37.008 82.228,36.8 C81.972,36.584 81.844,36.304 81.844,35.968 C81.844,35.496 82.028,35.144 82.412,34.904 C82.748,34.68 83.228,34.56 83.852,34.552 L84.844,34.536 L84.844,34.32 C84.844,33.624 84.484,33.28 83.764,33.28 C83.46,33.28 83.212,33.336 83.02,33.464 C82.804,33.592 82.668,33.792 82.604,34.056 L81.972,34.008 C82.06,33.576 82.276,33.248 82.612,33.04 C82.916,32.848 83.308,32.752 83.804,32.752 Z M84.844,35.016 L83.892,35.032 C82.964,35.048 82.5,35.352 82.5,35.952 C82.5,36.144 82.572,36.296 82.732,36.424 C82.892,36.544 83.1,36.608 83.356,36.608 C83.748,36.608 84.092,36.48 84.396,36.224 C84.692,35.976 84.844,35.688 84.844,35.368 L84.844,35.016 Z M88.24,32.752 C88.864,32.752 89.328,33.024 89.632,33.576 L89.632,32.864 L90.272,32.864 L90.272,36.712 C90.272,38.032 89.64,38.696 88.384,38.696 C87.824,38.696 87.392,38.584 87.104,38.36 C86.808,38.136 86.624,37.8 86.552,37.352 L87.192,37.352 C87.24,37.632 87.36,37.84 87.544,37.968 C87.728,38.104 88.008,38.176 88.384,38.176 C89.216,38.176 89.632,37.712 89.632,36.8 L89.632,36.072 C89.328,36.624 88.864,36.904 88.24,36.904 C87.664,36.904 87.208,36.704 86.872,36.312 C86.536,35.928 86.376,35.44 86.376,34.84 C86.376,34.232 86.536,33.744 86.872,33.36 C87.208,32.952 87.664,32.752 88.24,32.752 Z M88.336,33.28 C87.92,33.28 87.6,33.424 87.368,33.728 C87.144,34 87.032,34.376 87.032,34.84 C87.032,35.272 87.128,35.632 87.328,35.904 C87.552,36.208 87.88,36.368 88.328,36.368 C88.744,36.368 89.064,36.224 89.304,35.936 C89.528,35.656 89.64,35.288 89.64,34.84 C89.64,34.376 89.528,34 89.304,33.728 C89.064,33.424 88.744,33.28 88.336,33.28 Z M93.028,32.752 C93.692,32.752 94.196,32.976 94.532,33.424 C94.836,33.824 94.996,34.392 95.012,35.112 L91.748,35.112 C91.78,35.576 91.9,35.936 92.124,36.192 C92.348,36.448 92.66,36.576 93.052,36.576 C93.388,36.576 93.668,36.488 93.876,36.32 C94.052,36.176 94.188,35.96 94.292,35.672 L94.932,35.672 C94.836,36.072 94.652,36.392 94.372,36.648 C94.028,36.952 93.588,37.112 93.052,37.112 C92.46,37.112 91.98,36.912 91.628,36.528 C91.26,36.128 91.084,35.6 91.084,34.928 C91.084,34.32 91.252,33.808 91.604,33.4 C91.956,32.968 92.428,32.752 93.028,32.752 Z M93.044,33.288 C92.676,33.288 92.38,33.408 92.156,33.648 C91.932,33.888 91.804,34.208 91.764,34.616 L94.348,34.616 C94.268,33.728 93.828,33.288 93.044,33.288 Z M97.632,32.752 C98.264,32.752 98.696,33.008 98.928,33.536 C99.088,33.264 99.28,33.064 99.504,32.944 C99.704,32.816 99.944,32.752 100.232,32.752 C100.664,32.752 101.008,32.888 101.28,33.16 C101.536,33.44 101.672,33.816 101.672,34.288 L101.672,37 L101.032,37 L101.032,34.392 C101.032,34.024 100.952,33.752 100.8,33.576 C100.64,33.384 100.384,33.296 100.032,33.296 C99.76,33.296 99.528,33.392 99.352,33.6 C99.16,33.808 99.072,34.072 99.072,34.408 L99.072,37 L98.432,37 L98.432,34.392 C98.432,33.656 98.112,33.296 97.48,33.296 C97.184,33.296 96.944,33.408 96.752,33.648 C96.56,33.872 96.464,34.152 96.464,34.48 L96.464,37 L95.824,37 L95.824,32.864 L96.464,32.864 L96.464,33.416 C96.776,32.968 97.168,32.752 97.632,32.752 Z M104.428,32.752 C105.092,32.752 105.596,32.976 105.932,33.424 C106.236,33.824 106.396,34.392 106.412,35.112 L103.148,35.112 C103.18,35.576 103.3,35.936 103.524,36.192 C103.748,36.448 104.06,36.576 104.452,36.576 C104.788,36.576 105.068,36.488 105.276,36.32 C105.452,36.176 105.588,35.96 105.692,35.672 L106.332,35.672 C106.236,36.072 106.052,36.392 105.772,36.648 C105.428,36.952 104.988,37.112 104.452,37.112 C103.86,37.112 103.38,36.912 103.028,36.528 C102.66,36.128 102.484,35.6 102.484,34.928 C102.484,34.32 102.652,33.808 103.004,33.4 C103.356,32.968 103.828,32.752 104.428,32.752 Z M104.444,33.288 C104.076,33.288 103.78,33.408 103.556,33.648 C103.332,33.888 103.204,34.208 103.164,34.616 L105.748,34.616 C105.668,33.728 105.228,33.288 104.444,33.288 Z M109.16,32.752 C110.184,32.752 110.704,33.32 110.704,34.456 L110.704,37 L110.064,37 L110.064,34.504 C110.064,33.696 109.696,33.296 108.976,33.296 C108.688,33.296 108.44,33.4 108.232,33.608 C108.008,33.832 107.888,34.128 107.864,34.504 L107.864,37 L107.224,37 L107.224,32.864 L107.864,32.864 L107.864,33.472 C108.008,33.24 108.192,33.064 108.416,32.944 C108.64,32.816 108.888,32.752 109.16,32.752 Z M112.86,31.528 L112.86,32.864 L113.884,32.864 L113.884,33.4 L112.86,33.4 L112.86,36.032 C112.86,36.184 112.884,36.296 112.948,36.36 C113.004,36.424 113.108,36.464 113.252,36.464 L113.78,36.464 L113.78,37 L113.156,37 C112.82,37 112.572,36.912 112.428,36.736 C112.292,36.576 112.228,36.344 112.228,36.032 L112.228,33.4 L111.396,33.4 L111.396,32.864 L112.228,32.864 L112.228,31.792 L112.86,31.528 Z M117.02,31.288 L121.7,31.288 L121.7,31.856 L119.684,31.856 L119.684,37 L119.036,37 L119.036,31.856 L117.02,31.856 L117.02,31.288 Z M124.24,32.752 C124.856,32.752 125.352,32.96 125.72,33.392 C126.072,33.8 126.248,34.312 126.248,34.936 C126.248,35.552 126.072,36.064 125.728,36.464 C125.352,36.896 124.856,37.112 124.24,37.112 C123.616,37.112 123.128,36.896 122.76,36.464 C122.408,36.064 122.232,35.552 122.232,34.936 C122.232,34.312 122.408,33.8 122.76,33.392 C123.128,32.96 123.616,32.752 124.24,32.752 Z M124.24,33.288 C123.8,33.288 123.456,33.456 123.216,33.792 C122.992,34.096 122.888,34.472 122.888,34.936 C122.888,35.392 122.992,35.768 123.216,36.072 C123.456,36.408 123.8,36.576 124.24,36.576 C124.672,36.576 125.016,36.408 125.272,36.072 C125.488,35.768 125.6,35.384 125.6,34.936 C125.6,34.472 125.488,34.096 125.272,33.792 C125.016,33.456 124.672,33.288 124.24,33.288 Z M128.988,32.752 C129.604,32.752 130.1,32.96 130.468,33.392 C130.82,33.8 130.996,34.312 130.996,34.936 C130.996,35.552 130.82,36.064 130.476,36.464 C130.1,36.896 129.604,37.112 128.988,37.112 C128.364,37.112 127.876,36.896 127.508,36.464 C127.156,36.064 126.98,35.552 126.98,34.936 C126.98,34.312 127.156,33.8 127.508,33.392 C127.876,32.96 128.364,32.752 128.988,32.752 Z M128.988,33.288 C128.548,33.288 128.204,33.456 127.964,33.792 C127.74,34.096 127.636,34.472 127.636,34.936 C127.636,35.392 127.74,35.768 127.964,36.072 C128.204,36.408 128.548,36.576 128.988,36.576 C129.42,36.576 129.764,36.408 130.02,36.072 C130.236,35.768 130.348,35.384 130.348,34.936 C130.348,34.472 130.236,34.096 130.02,33.792 C129.764,33.456 129.42,33.288 128.988,33.288 Z M132.016,31.176 L132.648,31.176 L132.648,37 L132.016,37 L132.016,31.176 Z" id="Admin-Management-Too" fill="#595959"></path>
                        <g id="Group-53" transform="translate(17.819805, 18.142136) rotate(-45.000000) translate(-17.819805, -18.142136) translate(5.319805, 5.642136)">
                            <path d="M9.07979908,16.5668007 L9.07979908,12.0745997 L6.08499843,12.0745997 C4.4310157,12.0745997 3.09019778,10.7337818 3.09019778,9.07979908 L16.5668007,9.07979908 C20.7017575,9.07979908 24.0538023,12.4318439 24.0538023,16.5668007 L24.0538023,16.5668007 C24.0538023,20.7017575 20.7017575,24.0538023 16.5668007,24.0538023 L16.5668007,24.0538023 C12.4318439,24.0538023 9.07979908,20.7017575 9.07979908,16.5668007 Z M16.5668007,21.0590017 L16.5668007,21.0590017 C19.0477748,21.0590017 21.0590017,19.0477748 21.0590017,16.5668007 L21.0590017,16.5668007 C21.0590017,14.0858266 19.0477748,12.0745997 16.5668007,12.0745997 L12.0745997,12.0745997 L12.0745997,16.5668007 C12.0745997,19.0477748 14.0858266,21.0590017 16.5668007,21.0590017 Z" id="Combined-Shape" fill="#B2D6FD"></path>
                            <path d="M7.58239876,12.0745997 L16.5668007,12.0745997 C18.5227332,12.0745997 20.1867029,13.3246409 20.8033869,15.0694004 L7.58239876,15.0694004 C3.44744193,15.0694004 0.0953971272,11.7173556 0.0953971272,7.58239876 C0.0953971272,3.44744193 3.44744193,0.0953971272 7.58239876,0.0953971272 C11.7173556,0.0953971272 15.0694004,3.44744193 15.0694004,7.58239876 L15.0694004,9.07979908 L3.34581256,9.07979908 C3.96249653,10.8245585 5.62646626,12.0745997 7.58239876,12.0745997 Z M11.818985,6.08499843 C11.202301,4.34023899 9.53833125,3.09019778 7.58239876,3.09019778 C5.62646626,3.09019778 3.96249653,4.34023899 3.34581256,6.08499843 L11.818985,6.08499843 Z" id="Combined-Shape" fill="#1D83F2"></path>
                        </g>
                    </g>
                </g>
            </g>
        </g>
    </g>
</svg>