<?xml version="1.0" encoding="UTF-8"?>
<svg width="23px" height="23px" viewBox="0 0 23 23" version="1.1" xmlns="http://www.w3.org/2000/svg" xmlns:xlink="http://www.w3.org/1999/xlink">
    <!-- Generator: Sketch 49.3 (51167) - http://www.bohemiancoding.com/sketch -->
    <title>消息</title>
    <desc>Created with Sketch.</desc>
    <defs></defs>
    <g id="Page-1" stroke="none" stroke-width="1" fill="none" fill-rule="evenodd">
        <g id="标准表格（表格查询）" transform="translate(-1200.000000, -26.000000)" fill-rule="nonzero">
            <g id="Group-12" transform="translate(1198.000000, 25.000000)">
                <g id="消息" transform="translate(14.000000, 13.000000) scale(-1, 1) translate(-14.000000, -13.000000) ">
                    <rect id="Rectangle-path" fill="#000000" opacity="0" x="2" y="0" width="26" height="26"></rect>
                    <path d="M14.9999743,22.6451613 C13.4843208,22.6451613 12.0337914,22.3037745 10.6886643,21.6304402 C10.5071295,21.5395701 10.2827445,21.4953824 10.0027519,21.4953824 C9.54796327,21.4953824 8.97172275,21.6077548 8.36160843,21.7267374 C7.8143034,21.833477 7.24837677,21.9438433 6.88304378,21.9438433 C6.87360439,21.9438433 6.86460224,21.9437661 6.85601161,21.9436118 C6.90220551,21.6996281 7.06018039,21.2820832 7.1449292,21.05811 C7.44927905,20.2538075 7.76396852,19.4220871 7.30588766,18.8172205 C6.02948559,17.1318658 5.35483871,15.1202994 5.35483871,13.0000129 C5.35483871,11.6976349 5.60977961,10.434532 6.11253686,9.24586389 C6.5982929,8.09739677 7.29382477,7.06582886 8.17981643,6.17981266 C9.06580809,5.29382219 10.0973774,4.59829125 11.2458203,4.11253585 C12.4345157,3.60977927 13.6975689,3.35483871 14.9999486,3.35483871 C16.3023283,3.35483871 17.5654071,3.60977927 18.7540768,4.11253585 C19.9025455,4.59829125 20.9341148,5.29382219 21.8201321,6.17983838 C22.7061238,7.06582886 23.4016557,8.09739677 23.8874374,9.24586389 C24.3902461,10.434532 24.6451613,11.6976349 24.6451613,13.0000129 C24.6451613,14.3023651 24.3902461,15.5654423 23.8874631,16.7541104 C23.4016814,17.9025518 22.7061495,18.9341454 21.8201321,19.8201359 C20.9341405,20.7061264 19.9025712,21.401683 18.7541025,21.8874384 C17.5654071,22.3902207 16.302354,22.6451613 14.9999743,22.6451613 Z" id="Shape"></path>
                    <path d="M14.5160665,3.24999688 C15.6978651,3.24999688 16.8436386,3.4811713 17.9215873,3.93709516 C18.963386,4.37774406 19.8992848,5.00881748 20.7032588,5.81279047 C21.5072578,6.61678846 22.138332,7.55266112 22.5789815,8.59445851 C23.0349309,9.67243082 23.2661056,10.818228 23.2661056,12.000025 C23.2661056,13.181797 23.0349309,14.3275692 22.5790065,15.4054915 C22.138357,16.4472889 21.5072828,17.3831865 20.7032838,18.1871595 C19.8992848,18.9911575 18.963386,19.6222309 17.9215873,20.0628798 C16.8436386,20.5188037 15.6978651,20.7500031 14.5160665,20.7500031 C13.8253424,20.7500031 13.1381183,20.6694533 12.4734691,20.5105787 C11.8267603,20.3558417 11.1999382,20.127424 10.6052964,19.8298054 C10.3399968,19.6970058 10.0304221,19.6324309 9.6588976,19.6324309 C9.15644823,19.6324059 8.56747397,19.7472806 7.94394975,19.8688803 C7.80007493,19.8969303 7.65050011,19.9261052 7.5035503,19.9532051 C7.81779991,19.1189322 8.16414947,18.1067347 7.53575026,17.2769618 C6.97250096,16.5332637 6.53462651,15.7107157 6.23427688,14.8322179 C5.92365227,13.9235452 5.76612747,12.9706726 5.76612747,12.000025 C5.76612747,10.818228 5.99730218,9.67243082 6.45322661,8.59448351 C6.89387606,7.55268612 7.52495027,6.61678846 8.32892427,5.81281547 C9.13289826,5.00881748 10.0687971,4.37774406 11.1105708,3.93712016 C12.1885194,3.4811713 13.334293,3.24999688 14.5160665,3.24999688 Z M14.5160665,2 C8.99324844,2 4.51612903,6.47711381 4.51612903,12.000025 C4.51612903,14.2654443 5.26945309,16.3549391 6.5393015,18.0316349 C7.02647589,18.6749333 5.49025281,20.6915533 6.11612703,21.199952 C6.2208769,21.2850518 6.39992668,21.3183267 6.62652639,21.3183267 C7.44590037,21.3183267 8.88457357,20.8823778 9.6588726,20.8824028 C9.8207724,20.8824028 9.95369724,20.9014777 10.0457971,20.9475776 C11.3910954,21.6210009 12.9092935,22 14.5160915,22 C20.0389596,22 24.516129,17.5228112 24.516129,12.000025 C24.516104,6.47711381 20.0389346,2 14.5160665,2 Z" id="Shape" fill="#A3A3A3"></path>
                    <path d="M14.387075,8 C16.5962015,8 18.3870968,9.79089042 18.3870968,12.0000545 C18.3870968,14.2091314 16.5962015,16 14.387075,16 C12.1779921,16 10.3870968,14.2091314 10.3870968,12.0000545 C10.3870968,9.79089042 12.1779921,8 14.387075,8 Z" id="Shape" fill="#E6E6E6"></path>
                </g>
            </g>
        </g>
    </g>
</svg>