<?xml version="1.0" encoding="UTF-8"?>
<svg width="23px" height="23px" viewBox="0 0 23 23" version="1.1" xmlns="http://www.w3.org/2000/svg" xmlns:xlink="http://www.w3.org/1999/xlink">
    <!-- Generator: Sketch 49.3 (51167) - http://www.bohemiancoding.com/sketch -->
    <title>登录 用户</title>
    <desc>Created with Sketch.</desc>
    <defs></defs>
    <g id="Page-1" stroke="none" stroke-width="1" fill="none" fill-rule="evenodd">
        <g id="标准表格（表格查询）" transform="translate(-1042.000000, -27.000000)" fill-rule="nonzero">
            <g id="Group-10" transform="translate(1042.000000, 27.000000)">
                <g id="登录-用户">
                    <rect id="Rectangle-path" fill="#000000" opacity="0" x="0" y="0" width="24" height="24"></rect>
                    <path d="M11.6999632,1 C17.4895285,1 22.1999512,5.70975016 22.1999512,11.500012 C22.1999512,17.2902498 17.4895285,22 11.6999632,22 C5.90970136,22 1.19995117,17.2902498 1.19995117,11.500012 C1.19995117,5.70975016 5.90970136,1 11.6999632,1 Z M6.07261202,17.7225749 C6.57074191,17.5260704 7.80433403,16.9498656 9.33597087,16.6770426 L9.33597085,16.3507811 C7.80435654,14.8473836 6.9006291,12.0304725 6.9006291,9.90216074 C6.9006291,6.86476189 8.48334001,5.12279355 11.2479609,5.12279355 C14.0859052,5.12279355 15.8524647,6.90980078 15.8524647,9.90216074 C15.8524647,10.930263 15.4643198,14.3053858 13.9320524,16.1602666 L13.9320524,16.5700528 C14.6982086,16.7593286 16.2851306,17.1685743 17.3270373,17.5374652 C17.687596,17.6654882 17.8395797,18.0344016 17.7722691,18.3979553 C19.664397,16.7136592 20.8457215,14.2675307 20.8457215,11.5407424 C20.8457215,6.47175273 16.7117388,2.34734077 11.6439427,2.34734077 C6.57434502,2.34734077 2.44572193,6.47175273 2.44572193,11.5407424 C2.44572191,14.293383 3.66307753,16.7605672 5.587093,18.4472503 C5.58229636,18.1377883 5.76677556,17.8433917 6.07261202,17.7225749 Z" id="Shape" fill="#A3A3A3"></path>
                </g>
            </g>
        </g>
    </g>
</svg>