<?xml version="1.0" encoding="UTF-8"?>
<svg width="22px" height="22px" viewBox="0 0 22 22" version="1.1" xmlns="http://www.w3.org/2000/svg" xmlns:xlink="http://www.w3.org/1999/xlink">
    <!-- Generator: Sketch 49.3 (51167) - http://www.bohemiancoding.com/sketch -->
    <title>Rectangle-path Copy 4</title>
    <desc>Created with Sketch.</desc>
    <defs></defs>
    <g id="Symbols" stroke="none" stroke-width="1" fill="none" fill-rule="evenodd">
        <g id="sidebar_icon5" fill="#000000" fill-rule="nonzero">
            <g>
                <rect id="Rectangle-path-Copy-4" opacity="0" x="0" y="0" width="22" height="22"></rect>
                <path d="M4.10728477,14.4934882 C4.41810155,15.7764904 5.56688742,17.0948127 7.3187638,18.3301328 C8.09492274,18.8775942 8.93200883,19.3694264 9.76997793,19.7950335 C10.1393165,19.9825497 10.5144851,20.1583548 10.8949227,20.3221858 C10.8878587,20.3186538 11.014128,20.3133558 11.0309051,20.3045257 C11.4080883,20.1038575 11.781089,19.8954246 12.1496689,19.6793602 C13.0037533,19.1808922 13.8329961,18.6410298 14.6344371,18.0617001 C16.0516556,17.0303536 17.1006623,16.029029 17.6101545,15.1654529 C17.7366414,14.9611875 17.8318809,14.7391605 17.8927152,14.5067332 L17.8927152,5.26434914 L11.2498896,3.1318988 C11.0849534,3.0986715 10.9150466,3.0986715 10.7501104,3.1318988 L4.10728477,5.26434914 L4.10728477,14.4934882 Z M11.5880795,2.07671117 L18.4119205,4.26743964 C18.7342163,4.3707509 19,4.7301328 19,5.06743964 L19,14.6171085 C18.4649007,17.7137973 11.5386313,21.2899562 11.5386313,21.2899562 C11.2410596,21.4533116 10.7518764,21.4709717 10.4454746,21.3341063 C10.4454746,21.3341063 3.83090508,18.6268215 3,14.6171085 L3,5.07185465 C3,4.73366481 3.26313466,4.37251691 3.58807947,4.26832265 L10.4119205,2.07847717 C10.7342163,1.97428291 11.2631347,1.97339991 11.5880795,2.07847717 L11.5880795,2.07671117 Z M10.8640177,11.202539 C11.5627802,11.202546 12.2084665,10.8297647 12.5578498,10.2246197 C12.9072332,9.61947478 12.9072332,8.8739034 12.5578498,8.26875844 C12.2084665,7.66361348 11.5627802,7.29083214 10.8640177,7.2908392 C9.78383931,7.29085012 8.90818754,8.16651074 8.90818754,9.24668909 C8.90818754,10.3268674 9.78383931,11.2025281 10.8640177,11.202539 Z M10.8640177,12.1870864 C9.24008104,12.1870864 7.92362031,10.8706257 7.92362031,9.24668909 C7.92362031,7.62275248 9.24008104,6.30629174 10.8640177,6.30629174 C12.4879543,6.30629174 13.804415,7.62275248 13.804415,9.24668909 C13.804415,10.8706257 12.4879543,12.1870864 10.8640177,12.1870864 Z M11.4785872,12.1358723 L11.4785872,17.0453646 C11.4785872,17.3826714 11.2048565,17.6572851 10.8631347,17.6572851 C10.7002642,17.6591986 10.5435055,17.5953433 10.4283308,17.4801685 C10.313156,17.3649937 10.2493006,17.2082351 10.2512141,17.0453646 L10.2785872,12.1358723 C10.2785872,12.1358723 10.6635762,12.1985655 10.8649007,12.2012145 C11.0671082,12.2038635 11.4785872,12.1358723 11.4785872,12.1358723 Z M11.4741722,13.621965 L12.4604857,13.621965 C12.7995585,13.621965 13.0741722,13.8956957 13.0741722,14.2374176 C13.0732083,14.5762343 12.7992982,14.8509326 12.4604857,14.8528701 L11.4741722,14.8528701 L11.4741722,13.621965 Z" id="Shape"></path>
            </g>
        </g>
    </g>
</svg>