<?xml version="1.0" encoding="UTF-8"?>
<svg width="19px" height="17px" viewBox="0 0 19 17" version="1.1" xmlns="http://www.w3.org/2000/svg" xmlns:xlink="http://www.w3.org/1999/xlink">
    <!-- Generator: Sketch 49.3 (51167) - http://www.bohemiancoding.com/sketch -->
    <title>设置</title>
    <desc>Created with Sketch.</desc>
    <defs></defs>
    <g id="Symbols" stroke="none" stroke-width="1" fill="none" fill-rule="evenodd">
        <g id="设置" transform="translate(-1.000000, -1.000000)" fill="#000000" fill-rule="nonzero">
            <rect id="Rectangle-path" opacity="0" x="0" y="0" width="20" height="20"></rect>
            <path d="M12.9225781,17.924668 L12.9224609,17.924668 C12.6046289,17.9245117 12.2955664,17.7931641 12.0960547,17.5729492 C11.8241602,17.2748242 10.9626367,16.4996094 10.2574805,16.4996094 C9.55714844,16.4996094 8.68228516,17.2793164 8.43101563,17.5523828 C8.23195313,17.7688672 7.92507813,17.8980859 7.6103125,17.8980859 C7.46029297,17.8980859 7.31884766,17.869375 7.18960938,17.8125781 L7.16695313,17.8027539 L5.02349609,16.604043 L5.00216797,16.5891797 C4.61201172,16.3159961 4.46349609,15.7816992 4.65685547,15.3463281 C4.65835938,15.3430664 4.85457031,14.8902539 4.85457031,14.4773828 C4.85457031,13.2245313 3.83523437,12.2051758 2.58240234,12.2051758 L2.50642578,12.2051758 C2.50173828,12.2053516 2.49707031,12.2054492 2.49267578,12.2054492 C2.13373047,12.2054492 1.8415625,11.8866406 1.74808594,11.3932031 C1.74068359,11.3536328 1.56527344,10.4178516 1.56527344,9.68054688 C1.56527344,8.94318359 1.740625,8.00730469 1.74808594,7.96775391 C1.84261719,7.46810547 2.14115234,7.14714844 2.50644531,7.15574219 L2.58242188,7.15574219 C3.83527344,7.15574219 4.85458984,6.13640625 4.85458984,4.88363281 C4.85458984,4.47089844 4.65847656,4.01818359 4.65638672,4.01363281 C4.46324219,3.57875 4.61273438,3.04451172 5.00466797,2.77222656 L5.026875,2.75683594 L7.28898438,1.51423828 L7.31253906,1.50423828 C7.43996094,1.44994141 7.57943359,1.42240234 7.72722656,1.42240234 C8.04140625,1.42240234 8.34878906,1.54882813 8.54976563,1.76060547 C8.81751953,2.04087891 9.66375,2.77 10.34875,2.77 C11.0273438,2.77 11.8684766,2.05535156 12.135293,1.77992187 C12.3351562,1.5725 12.6403711,1.44822266 12.9513477,1.44822266 C13.1021289,1.44822266 13.2442383,1.47673828 13.3737695,1.53298828 L13.3966211,1.54298828 L15.5815039,2.75681641 L15.6030664,2.77193359 C15.9940234,3.0446875 16.1428906,3.57904297 15.949375,4.01460938 C15.9479688,4.01792969 15.7516406,4.47076172 15.7516406,4.88361328 C15.7516406,6.13640625 16.7709766,7.15572266 18.0237891,7.15572266 L18.0998828,7.15572266 C18.4645898,7.14759766 18.7635547,7.46802734 18.858125,7.96773438 C18.8655469,8.00726563 19.0409375,8.94304687 19.0409375,9.68039063 C19.0409375,10.417793 18.8655469,11.3536328 18.8579883,11.3931641 C18.7635156,11.8928516 18.4645508,12.2125977 18.099707,12.2051367 L18.0237891,12.2051367 C16.7709766,12.2051367 15.7516406,13.2244922 15.7516406,14.4773437 C15.7516406,14.89 15.9477734,15.3426562 15.9497852,15.3471484 C16.142793,15.7818555 15.9935938,16.3161719 15.6024023,16.5886914 L15.5805469,16.604043 L13.3587305,17.8320312 L13.335625,17.8420703 C13.208457,17.8968164 13.0695898,17.924668 12.9225781,17.924668 Z M12.8550977,16.8779102 C12.8649805,16.8843945 12.8931055,16.8954102 12.9225781,16.8954102 C12.9237891,16.8954102 12.9248828,16.8954102 12.9258984,16.895332 L15.0016797,15.7480664 C14.9515625,15.6317188 14.7224805,15.0667187 14.7224805,14.4775586 C14.7224805,12.7152148 16.1104687,11.270957 17.8507422,11.1806445 C17.8757422,11.0423242 18.0117187,10.2642773 18.0117187,9.680625 C18.0117187,9.09697266 17.8757422,8.31929687 17.8507422,8.18056641 C16.1105078,8.09019531 14.7224805,6.6459375 14.7224805,4.88369141 C14.7224805,4.29359375 14.9522656,3.72792969 15.0019336,3.61240234 L12.9598437,2.47785156 C12.9575,2.47775391 12.9546094,2.47753906 12.9512695,2.47753906 C12.9165039,2.47753906 12.8840234,2.49023437 12.8732227,2.49751953 C12.8388867,2.53275391 12.5429492,2.83292969 12.1177148,3.13201172 C11.4883008,3.57478516 10.8931641,3.79933594 10.3486719,3.79933594 C9.79902344,3.79933594 9.1990625,3.57035156 8.565625,3.11886719 C8.13777344,2.81400391 7.84039062,2.50804687 7.80605469,2.47216797 C7.79517578,2.46480469 7.76220703,2.45173828 7.72714844,2.45173828 C7.72441406,2.45173828 7.72201172,2.45183594 7.71988281,2.45195312 L5.60466797,3.61371094 C5.65544922,3.73154297 5.88363281,4.29552734 5.88363281,4.88373047 C5.88363281,6.64595703 4.49568359,8.09021484 2.75539062,8.18060547 C2.73039062,8.31900391 2.59443359,9.09693359 2.59443359,9.68064453 C2.59443359,10.2642383 2.73037109,11.041875 2.75552734,11.1805469 C4.49564453,11.2709766 5.88365234,12.7151563 5.88365234,14.4774414 C5.88365234,15.0688086 5.65294922,15.6353711 5.60380859,15.7493945 L7.60580078,16.8688477 C7.60705078,16.8690234 7.60859375,16.8690234 7.61029297,16.8690234 C7.63949219,16.8690234 7.66720703,16.8582813 7.67714844,16.8518945 C7.71457031,16.8117578 8.01353516,16.4952148 8.44427734,16.1795313 C9.08619141,15.7090234 9.69623047,15.4705469 10.2574805,15.4705469 C10.8239648,15.4705469 11.4386719,15.7135742 12.0843359,16.1930859 C12.5175391,16.5146875 12.8178125,16.8370898 12.8550977,16.8779102 Z M10.2647656,12.6950195 C8.59632812,12.6950195 7.23892578,11.3375781 7.23892578,9.66908203 C7.23892578,8.00064453 8.59634766,6.64322266 10.2647656,6.64322266 C11.9332812,6.64322266 13.2907812,8.00064453 13.2907812,9.66908203 C13.2907812,11.3375781 11.9332812,12.6950195 10.2647656,12.6950195 Z M10.2647656,7.67244141 C9.16382813,7.67244141 8.26820313,8.56810547 8.26820313,9.66904297 C8.26820313,10.7700586 9.16384766,11.6657422 10.2647656,11.6657422 C11.3658008,11.6657422 12.2616016,10.7700586 12.2616016,9.6690625 C12.2616016,8.56810547 11.3658398,7.67244141 10.2647656,7.67244141 Z" id="Shape"></path>
        </g>
    </g>
</svg>