<?xml version="1.0" encoding="UTF-8"?>
<svg width="22px" height="22px" viewBox="0 0 22 22" version="1.1" xmlns="http://www.w3.org/2000/svg" xmlns:xlink="http://www.w3.org/1999/xlink">
    <!-- Generator: Sketch 49.3 (51167) - http://www.bohemiancoding.com/sketch -->
    <title>sidebar_icon6</title>
    <desc>Created with Sketch.</desc>
    <defs></defs>
    <g id="Symbols" stroke="none" stroke-width="1" fill="none" fill-rule="evenodd">
        <g id="sidebar_icon6" fill="#000000" fill-rule="nonzero">
            <g id="sidebar_icon5" opacity="0">
                <rect id="Rectangle-path-Copy-4" x="0" y="0" width="22" height="22"></rect>
            </g>
            <g id="Group-Copy" transform="translate(3.000000, 2.000000)">
                <path d="M3,0 L13,0 C14.6568542,-3.04359188e-16 16,1.34314575 16,3 L16,15 C16,16.6568542 14.6568542,18 13,18 L3,18 C1.34314575,18 2.02906125e-16,16.6568542 0,15 L0,3 C-2.02906125e-16,1.34314575 1.34314575,-5.83819232e-16 3,0 Z M3,1 C1.8954305,1 1,1.8954305 1,3 L1,15 C1,16.1045695 1.8954305,17 3,17 L13,17 C14.1045695,17 15,16.1045695 15,15 L15,3 C15,1.8954305 14.1045695,1 13,1 L3,1 Z M1,3 L15,3 L15,4 L1,4 L1,3 Z M1,12 L15,12 L15,13 L1,13 L1,12 Z M8,16 C7.44771525,16 7,15.5522847 7,15 C7,14.4477153 7.44771525,14 8,14 C8.55228475,14 9,14.4477153 9,15 C9,15.5522847 8.55228475,16 8,16 Z" id="Combined-Shape"></path>
            </g>
        </g>
    </g>
</svg>