<?xml version="1.0" encoding="UTF-8"?>
<svg width="22px" height="22px" viewBox="0 0 22 22" version="1.1" xmlns="http://www.w3.org/2000/svg" xmlns:xlink="http://www.w3.org/1999/xlink">
    <!-- Generator: Sketch 49.3 (51167) - http://www.bohemiancoding.com/sketch -->
    <title>sidebar_icon01 copy 2</title>
    <desc>Created with Sketch.</desc>
    <defs></defs>
    <g id="Symbols" stroke="none" stroke-width="1" fill="none" fill-rule="evenodd">
        <g id="sidebar_icon4" fill-rule="nonzero">
            <g>
                <path d="M20.8451786,6.42666667 L19.1777438,3.70222222 C18.2781773,2.42888889 17.2089654,2 14.9388433,2 L13.2312294,2 C13.0281015,2 12.8405988,2.11333333 12.7468474,2.29555556 L12.3405915,3.07777778 L10.9990543,4.60444444 L9.67760667,3.1 L9.38295956,2.34666667 C9.30036908,2.13777778 9.09947332,2 8.87402364,2 L7.05926529,2 C5.01236074,2 3.71323484,2.60444444 2.69982735,4.03777778 L1.17078741,6.41555556 C0.864979425,6.89111111 0.98551688,7.52222222 1.40739797,7.82222222 L3.4208199,9.56666667 C3.75341399,9.80888889 4.18645595,9.88666667 4.58824747,9.78222222 C4.63512315,9.77111111 4.67976665,9.75111111 4.7199458,9.72888889 L4.90521633,9.62222222 L4.90521633,16.9533333 C4.90521633,18.4133333 6.09719783,19.6 7.56373686,19.6 L14.4321396,19.6 C15.8986786,19.6 17.0906601,18.4133333 17.0906601,16.9533333 L17.0906601,9.59333333 L17.2111976,9.65333333 C17.2446802,9.66888889 17.280395,9.68222222 17.3161098,9.69111111 C17.4321829,9.72222222 17.5504882,9.73777778 17.6710257,9.73777778 C17.9656728,9.73777778 18.2469268,9.64666667 18.503627,9.46222222 L20.5549959,7.84888889 C21.0058952,7.52666667 21.1353614,6.90222222 20.8451786,6.42666667 Z M17.8473675,8.59777778 C17.8004918,8.63333333 17.7424553,8.65333333 17.62415,8.64666667 L17.1844115,8.42888889 C17.1509289,8.41333333 17.1152141,8.4 17.0794993,8.39111111 L16.9924444,8.36222222 C16.8964609,8.32888889 16.7759234,8.28888889 16.6375286,8.28888889 C16.2759162,8.28888889 16.0035909,8.57111111 16.0035909,8.94666667 L16.0035909,16.9533333 C16.0035909,17.8133333 15.3004557,18.5133333 14.4343718,18.5133333 L7.56596903,18.5133333 C6.6998851,18.5133333 5.99674995,17.8133333 5.99674995,16.9533333 L5.99674995,8.94888889 C5.99674995,8.91333333 5.99451777,8.87777778 5.98782125,8.84444444 C5.920856,8.50222222 5.64406629,8.27111111 5.30031132,8.27111111 C5.03245031,8.27111111 4.8181615,8.40888889 4.78467888,8.44444444 L4.23779598,8.74444444 C4.17529508,8.74444444 4.11502635,8.72444444 4.10386548,8.72 L2.09714007,7.00222222 L3.60832261,4.64222222 C4.26904643,3.70888889 5.10834426,3.08666667 7.06149747,3.08666667 L8.50348257,3.08666667 L8.6976818,3.58222222 C8.72000355,3.64 8.75348618,3.69555556 8.79589751,3.74222222 L10.3628844,5.52888889 C10.6843176,5.89555556 11.3160232,5.89777778 11.6396886,5.52888889 L13.2066755,3.74444444 C13.2356938,3.71111111 13.2602477,3.67555556 13.2803373,3.63555556 L13.5638235,3.08888889 L14.9388433,3.08888889 C17.0527132,3.08888889 17.6799544,3.47111111 18.2670164,4.3 L19.9009686,6.98666667 L17.8473675,8.59777778 Z" id="Shape" fill="#1288F5"></path>
                <rect id="Rectangle-path-Copy" fill="#000000" opacity="0" x="0" y="0" width="22" height="22"></rect>
            </g>
        </g>
    </g>
</svg>