<?xml version="1.0" encoding="UTF-8"?>
<svg width="22px" height="22px" viewBox="0 0 22 22" version="1.1" xmlns="http://www.w3.org/2000/svg" xmlns:xlink="http://www.w3.org/1999/xlink">
    <!-- Generator: Sketch 60 (88103) - https://sketch.com -->
    <title>sidebar_config</title>
    <desc>Created with Sketch.</desc>
    <g id="sidebar_config" stroke="none" stroke-width="1" fill="none" fill-rule="evenodd">
        <g id="sidebar_icon5" fill="#000000" fill-rule="nonzero" opacity="0">
            <rect id="Rectangle-path-Copy-4" x="0" y="0" width="22" height="22"></rect>
        </g>
        <path d="M4.908415,2.60084889 L6.97832672,4.6710383 L4.67117218,6.97819285 L4.29532029,6.60265906 L2.64871861,4.95445808 L2.61155765,4.92061744 C2.60755642,4.91784751 2.60087527,4.91841831 2.62619159,4.89058502 L2.61937871,4.8877278 L2.59959303,4.91520684 L2.50193142,5.12378963 C1.6928601,6.95675177 2.04760257,9.07407324 3.4389861,10.4654568 C4.79316485,11.8196355 6.83697538,12.1941572 8.64150542,11.4614558 L8.96808632,11.3288527 L11.6711473,14.0319137 L11.5385442,14.3584946 C10.8058428,16.1630246 11.1803645,18.2068352 12.5345432,19.5610139 C13.9799448,21.0064155 16.2050561,21.3292819 18.0364102,20.4261475 L18.0419453,20.4310405 L18.0775613,20.4031417 C18.0822121,20.3984948 18.0822152,20.39098 18.0775431,20.3863051 L16.0218072,18.3288278 L18.3289617,16.0216733 L18.7048137,16.3974748 L20.3969281,18.0893625 L20.46194,17.9561707 C21.3164601,16.1079248 20.9740371,13.9475664 19.5610139,12.5345432 C18.2065944,11.1801237 16.1623102,10.8057243 14.3575876,11.5389126 L14.0309636,11.6716072 L11.3283928,8.96903644 L11.4610874,8.64241242 C12.1942757,6.83768976 11.8198763,4.79340559 10.4654568,3.4389861 C9.05243357,2.0259629 6.89207525,1.68353993 5.0536754,2.53338463 L4.908415,2.60084889 Z" id="路径" stroke="#000000" stroke-width="1.06306988"></path>
    </g>
</svg>