<?xml version="1.0" encoding="UTF-8"?>
<svg width="22px" height="22px" viewBox="0 0 22 22" version="1.1" xmlns="http://www.w3.org/2000/svg" xmlns:xlink="http://www.w3.org/1999/xlink">
    <!-- Generator: Sketch 49.3 (51167) - http://www.bohemiancoding.com/sketch -->
    <title>sidebar_icon01 copy 3</title>
    <desc>Created with Sketch.</desc>
    <defs></defs>
    <g id="Symbols" stroke="none" stroke-width="1" fill="none" fill-rule="evenodd">
        <g id="sidebar_icon3" fill-rule="nonzero">
            <g>
                <rect id="Rectangle-path-Copy-3" fill="#000000" opacity="0" x="0" y="0" width="22" height="22"></rect>
                <g id="Group-12" transform="translate(2.000000, 2.000000)" fill="#1288F5">
                    <path d="M7.96741207,0.000335095431 C5.55756804,-0.0300842236 3.4490441,2.01444423 3.40741138,4.54466373 C3.38658479,5.96981086 4.02037272,7.27095957 5.12100817,8.19046188 L5.44315487,8.38651785 L5.11097373,8.51025159 C2.09873523,9.63757852 0.0418989344,12.4661273 0,15.6985769 L0,15.7497034 C0,16.9525696 0.980713571,17.9276574 2.1905197,17.9276574 L2.19232181,17.9276574 L8.122946,18 C8.32013311,18 8.64230028,17.9296935 8.65284669,17.5385996 C8.6633931,17.0840812 8.3307,17.0273555 8.14403881,17.0273555 L2.21290266,16.9539745 C1.64161499,16.9539745 0.991137109,16.3072484 0.991137109,15.7392175 L0.991137109,15.7080244 C1.03252408,12.2795188 3.83084455,9.32110765 7.14055319,9.18153307 L8.05043176,9.19201898 C8.82920721,9.14089253 9.94092151,8.9542637 10.5330358,8.4483949 L10.7924365,8.25233893 C11.9139395,7.36402965 12.5793052,6.07308181 12.5996403,4.64795503 C12.631259,2.1394607 10.5744432,0.031792825 7.96737112,0.000355456421 L7.96741207,0.000335095431 Z M7.99597953,8.21497651 C6.00598493,8.193007 4.37723041,6.52986026 4.4101393,4.55181044 C4.43223556,2.57349593 6.10497782,0.964835192 8.09443998,0.986540007 C10.0839021,1.00824482 11.7131891,2.67165626 11.6802802,4.64970608 C11.6473713,6.6277559 9.98597413,8.24844998 7.99597953,8.21497651 Z" id="Shape"></path>
                    <path d="M17.8159801,12.5899662 C17.7553391,12.2700808 17.4980155,12.0112095 17.2373823,12.0079038 L17.1723422,12.0079038 C16.6041459,12.0077829 16.1435412,11.5561136 16.1435412,10.9989446 C16.1435412,10.9898741 16.1436851,10.9808238 16.1439112,10.9718138 C16.145679,10.8466211 16.2130625,10.6547907 16.2140698,10.5907531 C16.3485285,10.2734276 16.2233612,9.88849689 15.9652976,9.69340108 L14.8018735,9.03998429 L14.4761797,9.03591266 C14.2808333,9.03337292 14.0193778,9.09412494 13.8867281,9.28391957 C13.7548596,9.4104426 13.3599733,9.72476476 13.0995868,9.7212172 C12.8392003,9.71766963 12.4523104,9.39349089 12.258773,9.26317842 C12.1297206,9.13411565 11.9364093,9.00378302 11.6760228,9.00051765 C11.5469705,8.99874387 11.4806764,8.99797792 11.414588,9.06124951 L10.1690826,9.68429029 C9.90610598,9.87231113 9.77086617,10.2536742 9.89681454,10.5748294 C9.93472033,10.6936123 9.95671556,10.8301935 9.95706501,10.9717937 L9.95696223,10.9588128 C9.95696223,11.5159012 9.49639863,11.9675301 8.92824342,11.9675301 C8.91889031,11.9675301 8.90959886,11.967389 8.90030742,11.9671472 L8.83662405,11.9671875 C8.57621701,11.963902 8.31221261,12.2159402 8.24302015,12.5342937 C8.24302015,12.5983111 8.10623862,13.0437116 8.10031841,13.490624 C8.09515878,13.8737608 8.15349752,14.3854565 8.21775648,14.4499778 C8.2786442,14.770105 8.53621447,15.0284926 8.79662151,15.0320401 L8.86174383,15.0320401 C9.42987848,15.0320401 9.89046264,15.483649 9.89046264,16.0407575 C9.89046264,16.0499892 9.89031875,16.0592411 9.89007207,16.0684325 C9.88830423,16.193605 9.82092073,16.3854556 9.81991347,16.449473 C9.6854548,16.7670807 9.8108687,17.1517293 10.0686857,17.3465832 L11.2326237,18 C11.3634645,17.9377564 11.4285046,17.9387642 11.558852,17.940276 C11.7541984,17.9425537 12.0154071,17.8820838 12.1483035,17.6920272 C12.2801721,17.565484 12.6758189,17.1879104 13.0015128,17.191982 C13.2619198,17.1952676 13.713562,17.520958 13.8412987,17.7135544 C13.9703511,17.8431211 14.1636624,17.9731917 14.4242956,17.9764772 C14.553348,17.978251 14.6193953,17.979017 14.7505033,17.9167532 L15.9312359,17.2929465 C16.1942124,17.1049256 16.3294522,16.7233006 16.2035039,16.4024073 C16.1655981,16.2836648 16.1436029,16.1470836 16.1432534,16.0055439 L16.1433562,16.0181619 C16.1433562,15.4612147 16.603817,15.0097066 17.1718078,15.0097066 C17.1812225,15.0097066 17.1906579,15.0098477 17.2000315,15.0100896 L17.2636944,15.0100493 C17.5241014,15.0133348 17.7881058,14.7612966 17.8572983,14.4427012 C17.8572983,14.4427012 17.9940798,13.9335251 18,13.486633 C17.873805,13.1657397 17.815199,12.6538022 17.8160007,12.5900065 L17.8159801,12.5899662 Z M16.8832797,14.1749005 C15.9049033,14.2902971 15.178403,15.04746 15.1649797,16.0690775 C15.1623896,16.2606258 15.224079,16.5169977 15.2873102,16.6452945 L14.4356427,17.0815843 L14.1140601,16.7581715 C13.7269236,16.4977683 13.402792,16.3659239 13.0120581,16.3608646 C12.6863643,16.3567929 12.2940887,16.4795467 11.8999836,16.7300732 C11.768115,16.8566164 11.637007,16.9183561 11.5701579,17.0454032 L10.7959054,16.5883722 C10.8624872,16.461829 10.930878,16.2067471 10.9334681,16.0154408 C10.9458635,15.0575987 10.2405157,14.2187008 9.26575709,14.0784713 C9.26756604,13.9519281 9.20562995,13.6943267 9.20896007,13.4389827 C9.21155016,13.2474345 9.27992037,12.9928364 9.28251046,12.8015098 C10.2608869,12.6861132 10.9871405,11.9289504 11.0008105,10.9073328 C11.0031333,10.7157846 10.9417111,10.4593925 10.8782333,10.330874 L11.7299009,9.89458419 C11.7941804,9.95936753 11.9226983,10.0886722 12.0519768,10.1542215 C12.4390927,10.4146247 12.7632448,10.546207 13.0889592,10.5505205 C13.4146736,10.5548341 13.7416419,10.4310725 14.135747,10.1807879 C14.2676156,10.0542648 14.3987236,9.99276703 14.4645654,9.9292334 L15.3046391,10.3867884 C15.2380573,10.5133316 15.1694199,10.7681716 15.1668298,10.9597199 C15.1541877,11.9175619 15.8597822,12.7564598 16.834808,12.8969312 C16.8332457,13.0234744 16.8946885,13.2805921 16.8913378,13.5361779 C16.9543017,13.7287743 16.8859315,13.9833321 16.8833414,14.1749005 L16.8832797,14.1749005 Z" id="Shape"></path>
                    <path d="M14.8161561,13.2341615 C14.6958868,12.4641995 14.1160069,11.8802878 13.3998095,11.7424234 C12.1629603,11.4705163 11.0396851,12.5454057 11.2835816,13.8299832 C11.4048809,14.5362501 11.9847814,15.1201416 12.7009582,15.2575005 C13.9378073,15.5294076 15.0610826,14.4545182 14.8161561,13.2341817 L14.8161561,13.2341615 Z M13.039764,14.3004167 C12.5829963,14.2948358 12.1966019,13.905386 12.2022673,13.4568111 C12.2079326,13.0082362 12.6047304,12.6292203 13.0614775,12.6350438 C13.5182246,12.6408674 13.904928,13.0303171 13.8989743,13.4796604 C13.8930205,13.9290037 13.4967789,14.3065031 13.039764,14.3006795 L13.039764,14.3004167 Z" id="Shape"></path>
                </g>
            </g>
        </g>
    </g>
</svg>