<?xml version="1.0" encoding="UTF-8"?>
<svg width="22px" height="22px" viewBox="0 0 22 22" version="1.1" xmlns="http://www.w3.org/2000/svg" xmlns:xlink="http://www.w3.org/1999/xlink">
    <!-- Generator: Sketch 49.3 (51167) - http://www.bohemiancoding.com/sketch -->
    <title>sidebar_icon01</title>
    <desc>Created with Sketch.</desc>
    <defs></defs>
    <g id="Symbols" stroke="none" stroke-width="1" fill="none" fill-rule="evenodd">
        <g id="sidebar_icon01" fill-rule="nonzero">
            <g id="Group">
                <g id="sidebar_icon01">
                    <rect id="Rectangle-path-Copy-2" fill="#000000" opacity="0" x="0" y="0" width="22" height="22"></rect>
                    <g id="Group-11" transform="translate(1.000000, 2.000000)" fill="#1288F5">
                        <path d="M19.7625583,16.3315437 L17.5958868,16.3315437 L17.5958868,7.72416954 C17.5958868,6.93210128 16.9458919,6.29845942 16.1334092,6.29845942 L13.2084102,6.29845942 L13.2084102,2.02118031 C13.2084102,1.17625366 12.4500392,0.489795918 11.529224,0.489795918 L4.27081668,0.489795918 C3.4042004,0.489795918 2.91669331,1.17625366 2.91669331,2.02118031 L2.91669331,16.3315649 L1.29161882,16.3315649 C0.966664971,16.3315649 0.75,16.5955381 0.75,16.8595962 C0.75,17.1236544 0.966664971,17.3877551 1.23750709,17.3877551 L19.7625583,17.3877551 C20.0334222,17.3877551 20.25,17.1236544 20.25,16.8595962 C20.25,16.5955381 20.0334222,16.3315437 19.7625583,16.3315437 Z M16.0791448,7.35450084 C16.2959406,7.35450084 16.4583412,7.5129485 16.4583412,7.72416954 L16.4583412,16.3315437 L13.2084102,16.3315437 L13.2084102,7.35450084 L16.0791448,7.35450084 Z M4.00006177,2.02118031 C4.00006177,1.75712213 4.00006177,1.54594361 4.27081668,1.54594361 L11.529224,1.54594361 C11.8541561,1.54594361 12.12502,1.75714339 12.12502,2.02118031 L12.12502,16.3315649 L4.00006177,16.3315649 L4.00006177,2.02118031 Z" id="Shape"></path>
                        <path d="M6.99984932,4.75105589 L6.21049237,4.75105589 C6.10524618,4.75105589 6,4.64085255 6,4.53064921 L6,3.64897811 C6,3.53879695 6.105225,3.42857143 6.21049237,3.42857143 L6.99984932,3.42857143 C7.10507433,3.42857143 7.21040523,3.53879695 7.21040523,3.64897811 L7.21040523,4.47551427 C7.26295419,4.64085255 7.15775037,4.75105589 6.99984932,4.75105589 Z M6.99984932,7.39593611 L6.21049237,7.39593611 C6.10524618,7.39593611 6,7.28573277 6,7.1755516 L6,6.34894891 C6,6.23874557 6.105225,6.12856441 6.21049237,6.12856441 L6.99984932,6.12856441 C7.10507433,6.12856441 7.21040523,6.23874557 7.21040523,6.34894891 L7.21040523,7.1755516 C7.26295419,7.28575495 7.15775037,7.39593611 6.99984932,7.39593611 Z M6.99984932,10.0408163 L6.21049237,10.0408163 C6.10524618,10.0408163 6,9.93067952 6,9.82047618 L6,8.99382913 C6,8.88362579 6.105225,8.77342244 6.21049237,8.77342244 L6.99984932,8.77342244 C7.10507433,8.77342244 7.21040523,8.88362579 7.21040523,8.99382913 L7.21040523,9.82047618 C7.26295419,9.93067952 7.15775037,10.0408163 6.99984932,10.0408163 Z M9.52575771,4.75105589 L8.73640075,4.75105589 C8.63117574,4.75105589 8.52595074,4.64085255 8.52595074,4.53064921 L8.52595074,3.64897811 C8.52595074,3.53879695 8.63115456,3.42857143 8.73640075,3.42857143 L9.52575771,3.42857143 C9.63100389,3.42857143 9.73633479,3.53879695 9.73633479,3.64897811 L9.73633479,4.47551427 C9.78890493,4.64085255 9.68365875,4.75105589 9.52575771,4.75105589 Z M9.52575771,7.39593611 L8.73640075,7.39593611 C8.63117574,7.39593611 8.52595074,7.28573277 8.52595074,7.1755516 L8.52595074,6.34894891 C8.52595074,6.23874557 8.63115456,6.12856441 8.73640075,6.12856441 L9.52575771,6.12856441 C9.63100389,6.12856441 9.73633479,6.23874557 9.73633479,6.34894891 L9.73633479,7.1755516 C9.78890493,7.28575495 9.68365875,7.39593611 9.52575771,7.39593611 Z M9.52575771,10.0408163 L8.73640075,10.0408163 C8.63117574,10.0408163 8.52595074,9.93067952 8.52595074,9.82047618 L8.52595074,8.99382913 C8.52595074,8.88362579 8.63115456,8.77342244 8.73640075,8.77342244 L9.52575771,8.77342244 C9.63100389,8.77342244 9.73633479,8.88362579 9.73633479,8.99382913 L9.73633479,9.82047618 C9.78890493,9.93067952 9.68365875,10.0408163 9.52575771,10.0408163 Z" id="Shape"></path>
                    </g>
                </g>
            </g>
        </g>
    </g>
</svg>