<?xml version="1.0" encoding="UTF-8"?>
<svg width="22px" height="22px" viewBox="0 0 22 22" version="1.1" xmlns="http://www.w3.org/2000/svg" xmlns:xlink="http://www.w3.org/1999/xlink">
    <!-- Generator: Sketch 49.3 (51167) - http://www.bohemiancoding.com/sketch -->
    <title>sidebar_icon01 copy</title>
    <desc>Created with Sketch.</desc>
    <defs></defs>
    <g id="Symbols" stroke="none" stroke-width="1" fill="none" fill-rule="evenodd">
        <g id="sidebar_icon2" fill="#000000" fill-rule="nonzero">
            <g>
                <rect id="Rectangle-path" opacity="0" x="0" y="0" width="22" height="22"></rect>
                <path d="M16.6521442,13.9551297 L16.6521442,11.4524464 C16.6521442,10.9001617 16.204429,10.4524464 15.6521442,10.4524464 L10.9852121,10.4524464 L10.9852121,8.31153702 L14.3078148,8.31153702 C14.8600996,8.31153702 15.3078148,7.86382177 15.3078148,7.31153702 L15.3078148,2 C15.3078148,1.44771525 14.8600996,1 14.3078148,1 L6.58195882,1 C6.02967407,1 5.58195882,1.44771525 5.58195882,2 L5.58195882,7.31153702 C5.58195882,7.86382177 6.02967407,8.31153702 6.58195882,8.31153702 L9.90456148,8.31153702 L9.90456148,10.4524464 L5.35001706,10.4524464 C4.79773231,10.4524464 4.35001706,10.9001617 4.35001706,11.4524464 L4.35001706,13.9551297 L2,13.9551297 C1.44771525,13.9551297 1,14.4028449 1,14.9551297 L1,20.2666667 C1,20.8189514 1.44771525,21.2666667 2,21.2666667 L7.78068479,21.2666667 C8.33296954,21.2666667 8.78068479,20.8189514 8.78068479,20.2666667 L8.78068479,14.9551297 C8.78068479,14.4028449 8.33296954,13.9551297 7.78068479,13.9551297 L5.43066773,13.9551297 L5.43066773,11.5948741 L15.5693323,11.5948741 L15.5693323,13.9551297 L13.2193152,13.9551297 C12.6670305,13.9551297 12.2193152,14.4028449 12.2193152,14.9551297 L12.2193152,20.2666667 C12.2193152,20.8189514 12.6670305,21.2666667 13.2193152,21.2666667 L19,21.2666667 C19.5522847,21.2666667 20,20.8189514 20,20.2666667 L20,14.9551297 C20,14.4028449 19.5522847,13.9551297 19,13.9551297 L16.6521442,13.9551297 Z M6.66260949,2.14242766 L14.2271641,2.14242766 L14.2271641,7.16910936 L6.66260949,7.16910936 L6.66260949,2.14242766 Z M7.70003413,20.124239 L2.08065067,20.124239 L2.08065067,15.0975573 L7.70003413,15.0975573 L7.70003413,20.124239 Z M18.9215106,20.124239 L13.3021272,20.124239 L13.3021272,15.0975573 L18.9215106,15.0975573 L18.9215106,20.124239 Z" id="Shape"></path>
            </g>
        </g>
    </g>
</svg>