<?xml version="1.0" encoding="UTF-8"?>
<svg width="22px" height="22px" viewBox="0 0 22 22" version="1.1" xmlns="http://www.w3.org/2000/svg" xmlns:xlink="http://www.w3.org/1999/xlink">
    <!-- Generator: Sketch 52.6 (67491) - http://www.bohemiancoding.com/sketch -->
    <title>sidebar_message</title>
    <desc>Created with Sketch.</desc>
    <g id="sidebar_message" stroke="none" stroke-width="1" fill="none" fill-rule="evenodd">
        <g id="sidebar_icon5" fill="#000000" fill-rule="nonzero" opacity="0">
            <rect id="Rectangle-path-Copy-4" x="0" y="0" width="22" height="22"></rect>
        </g>
        <path d="M3.39779951,4.99464928 L10.874536,10.7587947 C10.9097145,10.7859154 11.0546,10.7859154 11.0897785,10.7587947 L18.5802693,4.98404549 C18.464755,4.9301189 18.3358948,4.9 18.2,4.9 L3.8,4.9 C3.65544052,4.9 3.51884134,4.93408211 3.39779951,4.99464928 Z M2.9,5.89688309 L2.9,16.2 C2.9,16.6970563 3.30294373,17.1 3.8,17.1 L18.2,17.1 C18.6970563,17.1 19.1,16.6970563 19.1,16.2 L19.1,5.86937159 L11.689264,11.5826343 C11.2987398,11.8837067 10.6655748,11.8837067 10.2750505,11.5826343 L2.9,5.89688309 Z M3.8,4 L18.2,4 C19.1941125,4 20,4.80588745 20,5.8 L20,16.2 C20,17.1941125 19.1941125,18 18.2,18 L3.8,18 C2.80588745,18 2,17.1941125 2,16.2 L2,5.8 C2,4.80588745 2.80588745,4 3.8,4 Z" id="形状" fill="#000000" fill-rule="nonzero"></path>
    </g>
</svg>