<?xml version="1.0" encoding="UTF-8"?>
<svg width="22px" height="22px" viewBox="0 0 22 22" version="1.1" xmlns="http://www.w3.org/2000/svg" xmlns:xlink="http://www.w3.org/1999/xlink">
    <!-- Generator: Sketch 60 (88103) - https://sketch.com -->
    <title>sidebar_container</title>
    <desc>Created with Sketch.</desc>
    <g id="sidebar_container" stroke="none" stroke-width="1" fill="none" fill-rule="evenodd">
        <g id="sidebar_icon5" fill="#000000" fill-rule="nonzero" opacity="0">
            <rect id="Rectangle-path-Copy-4" x="0" y="0" width="22" height="22"></rect>
        </g>
        <path d="M16,3 C17.1045695,3 18,3.8954305 18,5 L18,13 L17,13 L17,5 C17,4.48716416 16.6139598,4.06449284 16.1166211,4.00672773 L16,4 L6,4 C5.48716416,4 5.06449284,4.38604019 5.00672773,4.88337887 L5,5 L5,13 L4,13 L4,5 C4,3.8954305 4.8954305,3 6,3 L16,3 Z" id="形状结合" fill="#000000" fill-rule="nonzero"></path>
        <rect id="矩形" fill="#000000" x="7" y="7" width="8" height="1"></rect>
        <rect id="矩形备份-2" fill="#000000" x="7" y="10" width="8" height="1"></rect>
        <path d="M14.4645556,13.5 C14.2219407,15.1961471 12.763236,16.5 11,16.5 C9.23676405,16.5 7.77805926,15.1961471 7.53544443,13.5 L4,13.5 C3.17157288,13.5 2.5,14.1715729 2.5,15 L2.5,18 C2.5,18.8284271 3.17157288,19.5 4,19.5 L18,19.5 C18.8284271,19.5 19.5,18.8284271 19.5,18 L19.5,15 C19.5,14.1715729 18.8284271,13.5 18,13.5 L14.4645556,13.5 Z" id="形状结合" stroke="#000000"></path>
    </g>
</svg>